<svg version="1.1" xmlns="http://www.w3.org/2000/svg" style="display: block;" viewBox="0 0 1864 1864" width="466" height="466" preserveAspectRatio="none"><path transform="translate(0,0)" fill="rgb(79,162,111)" d="M 1029.12 159.581 C 1456.98 152.559 1809.59 493.571 1816.88 921.424 C 1824.17 1349.28 1483.38 1702.1 1055.53 1709.65 C 627.302 1717.22 274.1 1376.06 266.806 947.828 C 259.511 519.599 600.889 166.609 1029.12 159.581 z M 1193.87 1097.1 C 1172.92 1080.47 1137.62 1064.59 1113.58 1049.8 C 1099.65 1042.3 1068.04 1023.03 1055.57 1018.5 C 1043.69 1054.53 1024.57 1090.88 989.053 1108.06 C 968.002 1118.47 937.053 1124.81 914.2 1116.04 C 818.88 1079.48 817.236 937.476 841.873 854.751 C 859.369 796.006 920.966 770.842 977.812 789.074 C 1025.91 804.501 1041.45 853.858 1058.27 896.735 C 1099.68 884.827 1143.38 877.796 1185.18 867.022 C 1191.31 865.439 1198.38 863.772 1204.57 862.641 C 1182.03 703.233 1098.52 616.873 933.957 624.443 C 863.584 626.101 784.888 656.925 737.416 708.99 C 670.382 781.956 651.77 879.974 656.347 976.088 C 659.634 1062.86 683.646 1154.99 749.993 1215.55 C 814.465 1274.4 892.218 1285.69 975.911 1276.15 C 1096.4 1262.41 1144.46 1199.52 1193.87 1097.1 z M 1472.48 1285.23 C 1507.44 1283.89 1534.69 1254.47 1533.34 1219.51 C 1531.99 1184.56 1502.55 1157.32 1467.6 1158.69 C 1432.67 1160.06 1405.45 1189.47 1406.8 1224.4 C 1408.15 1259.33 1437.55 1286.56 1472.48 1285.23 z"/><path transform="translate(0,0)" fill="rgb(79,162,111)" d="M 123.759 1149.43 C 174.84 1145.91 219.103 1184.47 222.628 1235.55 C 226.152 1286.63 187.602 1330.89 136.523 1334.42 C 85.4376 1337.95 41.1655 1299.4 37.6409 1248.31 C 34.1162 1197.22 72.6738 1152.96 123.759 1149.43 z"/></svg>